HIERARCHY
ROOT Hips
{
	OFFSET -3.958830 18.904000 13.208200
	CHANNELS 6 Xposition Yposition Zposition Zrotation Yrotation Xrotation 
	JOINT LHipJoint
	{
		OFFSET 0.000000 0.000000 0.000000
		CHANNELS 3 Zrotation Yrotation Xrotation
		JOINT LeftUpLeg
		{
			OFFSET 1.800000 -1.400000 0.085000
			CHANNELS 3 Zrotation Yrotation Xrotation
			JOINT LeftLeg
			{
				OFFSET 2.215000 -6.000000 0.000000
				CHANNELS 3 Zrotation Yrotation Xrotation
				JOINT LeftFoot
				{
					OFFSET 2.500000 -6.900000 0.000000
					CHANNELS 3 Zrotation Yrotation Xrotation
					JOINT LeftToeBase
					{
						OFFSET 0.200000 -0.500000 1.950000
						CHANNELS 3 Zrotation Yrotation Xrotation
						End Site
						{
							OFFSET 0.000000 0.000000 0.000000
						}
					}
				}
			}
		}
	}
	JOINT RHipJoint
	{
		OFFSET 0.000000 0.000000 0.000000
		CHANNELS 3 Zrotation Yrotation Xrotation
		JOINT RightUpLeg
		{
			OFFSET -1.800000 -1.400000 0.085000
			CHANNELS 3 Zrotation Yrotation Xrotation
			JOINT RightLeg
			{
				OFFSET -2.215000 -6.000000 0.000000
				CHANNELS 3 Zrotation Yrotation Xrotation
				JOINT RightFoot
				{
					OFFSET -2.500000 -6.900000 0.000000
					CHANNELS 3 Zrotation Yrotation Xrotation
					JOINT RightToeBase
					{
						OFFSET -0.200000 -0.500000 1.950000
						CHANNELS 3 Zrotation Yrotation Xrotation
						End Site
						{
							OFFSET 0.000000 0.000000 0.000000
						}
					}
				}
			}
		}
	}
	JOINT LowerBack
	{
		OFFSET 0.000000 0.000000 0.000000
		CHANNELS 3 Zrotation Yrotation Xrotation
		JOINT Spine
		{
			OFFSET -0.087000 1.940000 -0.288900
			CHANNELS 3 Zrotation Yrotation Xrotation
			JOINT Spine1
			{
				OFFSET 0.000000 1.950000 0.060000
				CHANNELS 3 Zrotation Yrotation Xrotation
				JOINT Neck
				{
					OFFSET 0.000000 0.000000 0.000000
					CHANNELS 3 Zrotation Yrotation Xrotation
					JOINT Neck1
					{
						OFFSET 0.000000 1.600000 0.340000
						CHANNELS 3 Zrotation Yrotation Xrotation
						JOINT Head
						{
							OFFSET 0.000000 1.667000 -0.240000
							CHANNELS 3 Zrotation Yrotation Xrotation
							End Site
							{
								OFFSET 0.000000 0.000000 0.000000
							}
						}
					}
				}
				JOINT LeftShoulder
				{
					OFFSET 0.000000 0.000000 0.000000
					CHANNELS 3 Zrotation Yrotation Xrotation
					JOINT LeftArm
					{
						OFFSET 2.700000 1.550000 -0.730000
						CHANNELS 3 Zrotation Yrotation Xrotation
						JOINT LeftForeArm
						{
							OFFSET 5.450000 0.000000 0.000000
							CHANNELS 3 Zrotation Yrotation Xrotation
							JOINT LeftHand
							{
								OFFSET 3.450000 0.000000 0.000000
								CHANNELS 3 Zrotation Yrotation Xrotation
								JOINT LeftHandIndex1
								{
									OFFSET 0.750000 0.000000 0.000000
									CHANNELS 3 Zrotation Yrotation Xrotation
									End Site
									{
										OFFSET 0.000000 0.000000 0.000000
									}
								}
							}
						}
					}
				}
				JOINT RightShoulder
				{
					OFFSET 0.000000 0.000000 0.000000
					CHANNELS 3 Zrotation Yrotation Xrotation
					JOINT RightArm
					{
						OFFSET -2.700000 1.550000 -0.730000
						CHANNELS 3 Zrotation Yrotation Xrotation
						JOINT RightForeArm
						{
							OFFSET -5.450000 0.000000 0.000000
							CHANNELS 3 Zrotation Yrotation Xrotation
							JOINT RightHand
							{
								OFFSET -3.450000 0.000000 0.000000
								CHANNELS 3 Zrotation Yrotation Xrotation
								JOINT RightHandIndex1
								{
									OFFSET -0.750000 0.000000 0.000000
									CHANNELS 3 Zrotation Yrotation Xrotation
									End Site
									{
										OFFSET 0.000000 0.000000 0.000000
									}
								}
							}
						}
					}
				}
			}
		}
	}
}
MOTION
Frames: 4
Frame Time: 0.016667
-0.267760 13.615340 -6.349050 -55.751023 -1.565538 -11.622496 -15.234284 9.444029 4.798870 4.284278 -12.611350 -42.418012 -4.595011 24.448611 82.210497 2.128471 16.233014 -0.803331 0.275570 0.115540 0.343520 18.843596 -6.983054 5.640614 -25.245044 14.241758 -44.860285 47.749910 -48.493652 64.207354 -3.390231 -15.312951 -0.385902 0.043250 0.095200 0.063940 -4.370028 -1.137046 -10.105632 15.735213 -9.895897 56.947390 -15.825032 0.886121 20.059920 6.117105 -0.175283 -19.117627 -8.068128 11.383819 57.629228 9.039390 6.203670 -7.719740 -8.945446 -24.809220 8.397664 -17.868165 -13.557761 2.877212 4.217165 0.220082 -0.585724 -3.784933 2.496643 0.730250 -0.125710 0.224450 0.002140 -3.460117 22.174321 14.141306 -0.357751 -3.705536 -4.816864 -16.072894 11.385917 -0.847708 2.435640 -0.950233 -0.259080 0.308240 0.072150 -0.175450 
-0.247040 13.554530 -6.250650 -56.207426 -0.173785 -13.690593 -15.207628 9.265049 4.762678 4.916704 -13.043571 -42.403009 -3.661077 24.352732 84.013036 2.099490 16.503040 -0.873585 0.226410 0.039110 0.323430 18.907526 -6.876147 5.793830 -27.547998 12.530035 -46.483861 53.991852 -52.581101 61.325101 -3.365496 -15.051081 -0.301622 0.040520 0.145740 0.031440 -4.476918 -1.048669 -10.159792 17.046760 -11.708695 56.007063 -16.679356 -0.314315 19.768099 6.287836 -0.043611 -18.528081 -7.676525 11.857346 58.573133 9.691020 6.243370 -7.201600 -9.251706 -24.215804 8.357117 -18.387200 -13.717907 3.406624 2.673161 0.961174 -0.624907 -3.820576 2.409824 0.767460 -0.106050 0.181480 -0.020700 -3.354741 20.573333 13.454368 -3.771766 -4.532762 -4.934765 -17.552638 11.413955 -0.928676 2.414356 -0.922378 -0.338870 0.369860 0.126020 -0.205280 
-0.236500 13.487140 -6.137720 -56.050001 -0.078743 -15.312061 -15.197955 8.961621 4.923885 7.200038 -12.905935 -43.367262 -7.324860 28.444258 84.303539 2.360840 17.319985 -1.044948 0.249180 0.081900 0.334610 18.948500 -6.740642 5.851517 -28.734744 11.647316 -48.228736 60.222912 -55.389620 57.837133 -3.350050 -14.658314 -0.185903 0.052370 0.133720 0.033270 -4.550663 -0.859919 -10.278515 17.592995 -12.372929 54.867497 -17.667207 -0.524357 19.560834 6.640114 0.452836 -18.067550 -6.457717 11.267919 59.912419 9.548100 6.012600 -7.074060 -9.167655 -23.473639 8.308660 -19.820549 -13.797630 3.618171 2.548628 1.319794 -0.582019 -3.805942 2.432440 0.749740 -0.111780 0.202680 -0.003430 -4.129879 19.308764 12.806570 -5.497773 -4.328288 -5.273111 -20.306736 10.217773 -1.187389 2.497704 -0.994000 -0.313710 0.369140 0.097890 -0.187940 
-0.208720 13.373160 -6.028380 -54.251238 0.374137 -16.902483 -15.236691 8.655515 5.220228 6.499548 -14.413723 -45.954776 -9.291973 31.674907 86.500558 2.680071 18.273343 -1.212639 0.255940 0.093660 0.323400 18.956525 -6.589497 5.841772 -31.029478 9.406609 -49.657511 70.497031 -58.131734 50.974818 -3.209086 -13.760553 0.062110 0.045210 0.136260 0.042690 -4.502050 -0.866592 -10.436280 16.543157 -12.259426 54.440180 -18.143451 -0.620937 18.523443 6.985333 0.769983 -17.487690 -5.566384 10.416605 59.935724 9.288290 5.351070 -6.885220 -9.430445 -22.570057 8.084279 -21.622348 -14.045272 3.805561 2.777792 1.255057 -0.557134 -3.796946 2.475564 0.729860 -0.106740 0.202090 0.013170 -4.616800 18.334368 12.091704 -8.117447 -5.212641 -5.649872 -22.472436 11.108455 -1.437323 2.510719 -1.075323 -0.290490 0.356540 0.086200 -0.171680 
